<svg width="12" height="9" viewBox="0 0 12 9" fill="none" xmlns="http://www.w3.org/2000/svg">
<path d="M11.576 4.02876C11.701 4.15378 11.7712 4.32332 11.7712 4.5001C11.7712 4.67687 11.701 4.84641 11.576 4.97143L7.80465 8.74276C7.74316 8.80644 7.66959 8.85723 7.58826 8.89216C7.50692 8.9271 7.41944 8.94549 7.33092 8.94626C7.2424 8.94703 7.15462 8.93017 7.07269 8.89664C6.99075 8.86312 6.91632 8.81362 6.85372 8.75103C6.79113 8.68843 6.74163 8.614 6.70811 8.53207C6.67459 8.45014 6.65772 8.36235 6.65849 8.27383C6.65926 8.18531 6.67765 8.09783 6.71259 8.01649C6.74753 7.93516 6.79831 7.86159 6.86199 7.8001L9.49532 5.16676L0.666655 5.16676C0.489844 5.16676 0.320274 5.09653 0.19525 4.9715C0.0702257 4.84648 -1.14441e-05 4.67691 -1.14441e-05 4.5001C-1.14441e-05 4.32329 0.0702257 4.15372 0.19525 4.02869C0.320274 3.90367 0.489844 3.83343 0.666655 3.83343L9.49532 3.83343L6.86199 1.2001C6.74055 1.07436 6.67335 0.905961 6.67487 0.731163C6.67639 0.556365 6.7465 0.389156 6.87011 0.265551C6.99371 0.141946 7.16092 0.0718327 7.33572 0.0703135C7.51052 0.0687943 7.67892 0.135991 7.80465 0.257429L11.576 4.02876Z" fill="#F6D155"/>
</svg>
