<svg width="1010" height="169" viewBox="0 0 1010 169" fill="none" xmlns="http://www.w3.org/2000/svg">
<path d="M17.4172 129.787L75.9522 26.5571H92.2439L109.259 129.787H95.8479L90.8039 100.084H49.1366L32.5569 129.787H17.4172ZM55.0521 89.4199H89.2234L85.1837 63.4683C84.8957 61.5481 84.6077 59.8643 84.3196 58.4242C84.0316 56.408 83.7879 54.4362 83.5959 52.516C83.0199 47.6123 82.5841 42.7085 82.2961 37.8122C79.7039 44.156 76.2403 51.172 71.9125 58.8599L55.0521 89.4199Z" fill="#F8D153"/>
<path d="M146.46 65.4847C154.244 57.4127 162.028 53.373 169.819 53.373C176.739 53.373 182.455 55.9209 186.975 61.0167C191.783 66.5925 194.183 74.0885 194.183 83.5046C194.183 96.7684 190.387 108.156 182.795 117.676C175.395 126.811 166.887 131.375 157.279 131.375C148.144 131.375 141.224 126.856 136.519 117.824L128.012 158.479H115.324L136.948 55.1085H148.624L146.46 65.4847ZM140.544 103.112C140.544 104.456 140.64 105.756 140.832 107.004C142.56 116.428 147.9 121.132 156.836 121.132C163.948 121.132 169.959 116.856 174.856 108.297C179.183 100.705 181.34 92.485 181.34 83.6449C181.34 70.2851 176.2 63.6015 165.912 63.6015C161.873 63.6015 158.128 64.9013 154.665 67.4935C151.681 69.7091 149.045 72.8256 146.733 76.8653C142.597 84.1693 140.537 91.621 140.537 99.2129V103.112H140.544Z" fill="white"/>
<path d="M226.618 65.4847C234.402 57.4127 242.186 53.373 249.977 53.373C256.897 53.373 262.613 55.9209 267.133 61.0167C271.941 66.5925 274.341 74.0885 274.341 83.5046C274.341 96.7684 270.545 108.156 262.953 117.676C255.553 126.811 247.045 131.375 237.437 131.375C228.302 131.375 221.382 126.856 216.677 117.824L208.169 158.479H195.482L217.106 55.1085H228.782L226.618 65.4847ZM220.702 103.112C220.702 104.456 220.798 105.756 220.99 107.004C222.718 116.428 228.058 121.132 236.994 121.132C244.106 121.132 250.117 116.856 255.014 108.297C259.342 100.705 261.498 92.485 261.498 83.6449C261.498 70.2851 256.358 63.6015 246.07 63.6015C242.031 63.6015 238.286 64.9013 234.823 67.4935C231.839 69.7091 229.202 72.8256 226.891 76.8653C222.755 84.1693 220.695 91.621 220.695 99.2129V103.112H220.702Z" fill="white"/>
<path d="M280.825 129.787L302.449 26.5571H315.137L293.513 129.787H280.825Z" fill="white"/>
<path d="M348.445 138.296C346.621 141.561 345.033 144.16 343.689 146.08C341.865 148.673 340.085 150.836 338.357 152.565C334.221 156.508 329.325 158.473 323.653 158.473C320.285 158.473 317.457 158.037 315.145 157.173L315.869 145.209C318.941 145.977 321.349 146.361 323.077 146.361C326.245 146.361 328.941 145.349 331.149 143.333C332.685 141.989 334.509 139.485 336.629 135.837L340.668 128.629L328.269 53.6621H340.809L346.429 91.2897C347.677 98.7856 348.637 106.282 349.309 113.778L382.756 53.6548H396.02L348.445 138.296Z" fill="white"/>
<path d="M1008.18 169H0.0112305V0H1008.18V169ZM4.48683 164.699H1003.71V4.30087H4.48683V164.699Z" fill="#F8D153"/>
<path d="M1009.16 4.26807H812.163V167.739H1009.16V4.26807Z" fill="#F8D153"/>
<path d="M868.054 138.693C860.418 138.693 854.429 136.868 850.079 133.213C845.729 129.557 843.55 124.616 843.55 118.376C843.55 107.948 848.063 100.186 857.095 95.0757C866.127 89.9725 877.086 87.0406 889.988 86.2873L902.728 85.3198C903.695 85.2165 904.471 84.9137 905.069 84.4337C905.66 83.9462 906.007 83.3333 906.118 82.58L906.76 78.2301C906.974 76.5093 907.085 75.3277 907.085 74.6852C907.085 69.9587 905.556 66.2735 902.491 63.6369C899.427 61.0078 895.21 59.6859 889.833 59.6859C880.048 59.6859 871.614 64.0948 864.517 72.9053C864.192 73.3337 863.874 73.5774 863.549 73.6291C863.224 73.6882 862.796 73.607 862.257 73.3854L854.037 70.483C853.395 70.2689 853.07 69.8405 853.07 69.1906C853.07 68.6515 853.284 68.009 853.712 67.2557C857.686 61.7759 862.826 57.5294 869.11 54.5162C875.403 51.5105 882.625 50.0039 890.801 50.0039C900.365 50.0039 907.654 52.0496 912.646 56.1336C917.646 60.2176 920.142 65.8599 920.142 73.0604C920.142 74.1387 920.031 75.7486 919.817 77.8977L911.915 135.14C911.804 136.004 911.62 136.536 911.354 136.75C911.08 136.964 910.519 137.075 909.663 137.075H901.598C900.202 137.075 899.5 136.219 899.5 134.498L900.305 126.758C900.305 126.116 900.143 125.791 899.818 125.791C899.493 125.791 898.902 126.219 898.046 127.083C889.338 134.823 879.339 138.693 868.054 138.693ZM904.175 95.6444L904.338 94.6769C904.338 93.8202 903.747 93.4436 902.565 93.547L891.443 94.5144C882.411 95.1569 874.457 97.0919 867.582 100.319C860.699 103.547 857.265 108.923 857.265 116.441C857.265 120.207 858.66 123.191 861.459 125.392C864.251 127.593 868.121 128.7 873.069 128.7C876.614 128.7 880.085 128.08 883.467 126.847C886.85 125.613 889.944 123.974 892.736 121.928C895.527 119.89 897.787 117.734 899.508 115.481C901.229 113.221 902.196 111.131 902.41 109.196L904.175 95.6444Z" fill="#131D27"/>
<path d="M948.996 134.823C948.885 135.901 948.671 136.544 948.353 136.758C948.028 136.972 947.275 137.083 946.093 137.083H937.866C936.035 137.083 935.23 136.175 935.444 134.343L946.891 53.4014C946.994 52.6481 947.157 52.168 947.378 51.9538C947.593 51.7397 948.021 51.6289 948.671 51.6289H958.825C960.118 51.6289 960.65 52.4339 960.435 54.0513L948.996 134.823ZM963.833 33.5648C963.618 34.643 963.323 35.3667 962.946 35.7434C962.57 36.12 961.846 36.3046 960.768 36.3046H950.931C949.321 36.3046 948.73 35.2855 949.158 33.2398L951.093 19.8578C951.307 18.2479 952.112 17.4429 953.508 17.4429H963.988C964.63 17.4429 965.118 17.7088 965.435 18.2479C965.76 18.787 965.812 19.4886 965.598 20.3452L963.833 33.5648Z" fill="#131D27"/>
<path d="M560.019 116.235C554.636 122.291 549.015 126.567 543.152 129.063C537.864 131.271 532.82 131.943 528.012 131.079C518.108 129.255 513.16 123.635 513.16 114.211C513.16 112.003 513.397 109.403 513.884 106.427C514.172 104.603 514.697 101.863 515.472 98.2074L524.556 55.1001H537.243L526.432 107.579C526.144 109.403 525.996 110.895 525.996 112.047C525.996 118.007 529.408 120.983 536.232 120.983C544.4 120.983 551.32 117.091 556.991 109.307C559.296 106.132 561.12 102.439 562.471 98.2074C562.951 96.6713 563.431 94.8472 563.911 92.7276L571.843 55.1001H584.531L568.963 129.779H557.139L560.019 116.235Z" fill="white"/>
<path d="M588.563 129.787L604.131 55.1083H616.967L601.251 129.787H588.563ZM607.167 40.973L610.195 26.5571H622.882L619.855 40.973H607.167Z" fill="white"/>
<path d="M677.231 78.8957C677.135 68.7115 672.186 63.6157 662.379 63.6157C654.595 63.6157 648.347 67.6554 643.635 75.7274C639.308 83.1274 637.151 92.2112 637.151 102.979C637.151 115.379 642.003 121.575 651.715 121.575C661.323 121.575 668.243 115.231 672.474 102.543L685.162 103.843C678.818 122.202 667.622 131.382 651.567 131.382C643.296 131.382 636.715 128.79 631.812 123.598C626.812 118.214 624.316 110.91 624.316 101.686C624.316 88.0385 627.824 76.6506 634.84 67.5151C642.144 58.099 651.707 53.3872 663.531 53.3872C671.219 53.3872 677.467 55.4994 682.275 59.7311C687.274 64.2508 689.719 70.4027 689.63 78.1867L677.231 78.8957Z" fill="white"/>
<path d="M693.093 129.787L714.717 26.5571H727.404L713.993 90.572L751.192 55.1083H768.06L736.052 82.9356L755.372 129.795H741.384L726.533 91.4434L711.105 104.855L705.773 129.795H693.093V129.787Z" fill="white"/>
<path d="M491.108 37.5178C483.125 29.0618 472.608 24.8301 459.529 24.8301C452.757 24.8301 446.465 25.9231 440.667 28.1091C437.425 29.3277 435.926 33.0646 437.396 36.2033C438.747 39.0983 442.174 40.4571 445.106 39.1721C449.589 37.2003 454.448 36.218 459.684 36.218C468.14 36.218 475.156 39.2903 480.732 45.4421C480.784 45.5012 480.843 45.5603 480.894 45.6194C481.397 46.1659 482.231 46.2471 482.822 45.7966L490.931 39.63C491.603 39.1204 491.699 38.1382 491.123 37.5252C491.116 37.5252 491.108 37.5178 491.108 37.5178Z" fill="white"/>
<path d="M500.813 54.5618C500.074 52.1025 499.151 49.754 498.051 47.531C496.478 44.3628 492.409 43.4027 489.595 45.5444L487.985 46.7704C485.873 48.373 485.097 51.2384 486.205 53.646C486.892 55.1452 487.475 56.7109 487.948 58.3504C488.952 61.814 492.63 63.7489 496.042 62.5821L496.81 62.3162C500.008 61.2232 501.78 57.8039 500.813 54.5618Z" fill="white"/>
<path d="M492.319 117.113C490.126 117.024 488.287 118.738 488.206 120.924L487.859 129.993C484.195 127.282 481.138 124.476 478.708 121.574C494.948 109.462 503.072 92.6459 503.072 71.1107C503.072 69.6189 503.028 68.1493 502.932 66.7166C502.858 65.5571 501.691 64.789 500.591 65.1657L490.724 68.5481C490 68.7918 489.528 69.4712 489.528 70.2393C489.528 70.2467 489.528 70.2467 489.528 70.2541C489.528 88.7023 483.132 102.837 470.348 112.638L467.328 109.469C466.072 108.221 464.824 107.114 463.576 106.154C460.408 103.465 456.892 101.346 453.052 99.8096L448.008 108.465C450.896 109.905 453.54 111.493 455.94 113.221C457.668 114.565 459.44 116.109 461.272 117.837C457.328 119.373 452.668 120.141 447.284 120.141C439.877 120.141 433.393 117.216 427.817 111.345C421.569 104.905 418.445 96.405 418.445 85.8294C418.445 73.0752 421.776 62.2042 428.43 53.209C429.198 52.1677 429.346 50.7941 428.799 49.6198L425.889 43.3941C424.833 41.1417 421.82 40.7059 420.173 42.567C409.982 54.1027 404.893 68.1862 404.893 84.8103C404.893 99.1302 408.97 110.526 417.145 118.982C425.313 127.342 436.413 131.522 450.453 131.522C456.604 131.522 463.089 129.934 469.92 126.766C469.92 126.869 470.009 126.958 470.208 127.054L472.372 129.498C473.531 130.754 474.683 131.906 475.835 132.962C477.394 134.476 479.055 135.938 480.828 137.356L471.449 138.744C469.285 139.062 467.786 141.078 468.111 143.249C468.399 145.221 470.097 146.632 472.025 146.632C472.217 146.632 472.416 146.617 472.608 146.587L492.039 143.707C493.922 143.427 495.347 141.846 495.421 139.941L496.137 121.227C496.211 119.033 494.505 117.194 492.319 117.113Z" fill="#F8D153"/>
<path d="M451.613 91.895C450.468 91.895 449.331 91.5036 448.481 90.8242L437.308 81.8659C436.377 81.12 435.823 80.0935 435.742 78.9783C435.668 77.8927 436.052 76.8366 436.835 76.0021C437.536 75.2562 438.519 74.7466 439.59 74.5768C439.855 74.5324 440.129 74.5103 440.402 74.5103C441.547 74.5103 442.654 74.8944 443.518 75.5812L451.059 81.6296L468.946 62.1918C469.655 61.4238 470.644 60.8994 471.737 60.7295C472.003 60.6852 472.276 60.6631 472.55 60.6631C473.68 60.6631 474.773 61.0323 475.629 61.7044C476.567 62.4429 477.136 63.4621 477.232 64.5772C477.32 65.6629 476.944 66.7189 476.176 67.5608L455.202 90.3589C454.493 91.127 453.503 91.6513 452.41 91.8212C452.263 91.8434 452.115 91.8581 451.967 91.8729C451.849 91.8877 451.731 91.895 451.613 91.895Z" fill="white"/>
</svg>
