<svg width="204" height="337" viewBox="0 0 204 337" fill="none" xmlns="http://www.w3.org/2000/svg">
<path d="M0.0626621 85.975C0.0113266 87.186 0.208258 88.3948 0.64134 89.5269C1.07442 90.659 1.7345 91.6905 2.58099 92.5581C3.42748 93.4256 4.44249 94.1109 5.5636 94.5717C6.68472 95.0324 7.88823 95.259 9.10015 95.2375H40.0377C45.2127 95.2375 49.3377 91 50.0127 85.8625C53.3877 61.2625 70.2627 43.3375 100.338 43.3375C126.063 43.3375 149.613 56.2 149.613 87.1375C149.613 110.95 135.588 121.9 113.425 138.55C88.1877 156.887 68.2002 178.3 69.6252 213.062L69.7377 221.2C69.777 223.66 70.7821 226.007 72.536 227.732C74.2899 229.458 76.652 230.425 79.1127 230.425H109.525C112.012 230.425 114.396 229.437 116.154 227.679C117.912 225.921 118.9 223.536 118.9 221.05V217.112C118.9 190.187 129.138 182.35 156.775 161.387C179.613 144.025 203.425 124.75 203.425 84.2875C203.425 27.625 155.575 0.25 103.188 0.25C55.6752 0.25 3.62516 22.375 0.0626621 85.975ZM58.4501 302.087C58.4501 322.075 74.3877 336.85 96.3252 336.85C119.163 336.85 134.875 322.075 134.875 302.087C134.875 281.387 119.125 266.837 96.2877 266.837C74.3877 266.837 58.4501 281.387 58.4501 302.087Z" fill="white" fill-opacity="0.08"/>
</svg>
