<svg width="188" height="33" viewBox="0 0 188 33" fill="none" xmlns="http://www.w3.org/2000/svg">
<rect width="188" height="31.4841" transform="translate(0 0.875)" fill="#131D26"/>
<path d="M3.24219 25.0596L14.147 5.82812H17.1821L20.3521 25.0596H17.8535L16.9139 19.5259H9.15139L6.06265 25.0596H3.24219ZM10.2534 17.5392H16.6194L15.8668 12.7045C15.8132 12.3468 15.7595 12.0331 15.7059 11.7648C15.6522 11.3892 15.6068 11.0219 15.571 10.6642C15.4637 9.75063 15.3826 8.83708 15.3289 7.9249C14.846 9.10674 14.2007 10.4138 13.3945 11.846L10.2534 17.5392Z" fill="#F8D153"/>
<path d="M27.281 13.0825C28.7311 11.5787 30.1812 10.8262 31.6328 10.8262C32.9219 10.8262 33.9868 11.3008 34.8288 12.2502C35.7245 13.2889 36.1716 14.6854 36.1716 16.4396C36.1716 18.9106 35.4645 21.0321 34.0501 22.8056C32.6715 24.5075 31.0865 25.3577 29.2966 25.3577C27.5947 25.3577 26.3055 24.5157 25.4291 22.8331L23.8442 30.4071H21.4805L25.5089 11.1495H27.6841L27.281 13.0825ZM26.1789 20.0924C26.1789 20.3428 26.1968 20.585 26.2326 20.8175C26.5546 22.573 27.5493 23.4494 29.214 23.4494C30.539 23.4494 31.6589 22.6528 32.5711 21.0582C33.3773 19.6439 33.7791 18.1126 33.7791 16.4657C33.7791 13.9768 32.8215 12.7317 30.9049 12.7317C30.1524 12.7317 29.4548 12.9738 28.8096 13.4568C28.2537 13.8695 27.7625 14.4501 27.3319 15.2027C26.5614 16.5634 26.1776 17.9516 26.1776 19.366V20.0924H26.1789Z" fill="white"/>
<path d="M42.2146 13.0825C43.6647 11.5787 45.1148 10.8262 46.5664 10.8262C47.8555 10.8262 48.9204 11.3008 49.7624 12.2502C50.6581 13.2889 51.1052 14.6854 51.1052 16.4396C51.1052 18.9106 50.3981 21.0321 48.9837 22.8056C47.6051 24.5075 46.0202 25.3577 44.2302 25.3577C42.5283 25.3577 41.2391 24.5157 40.3627 22.8331L38.7778 30.4071H36.4141L40.4425 11.1495H42.6177L42.2146 13.0825ZM41.1125 20.0924C41.1125 20.3428 41.1304 20.585 41.1662 20.8175C41.4881 22.573 42.4829 23.4494 44.1476 23.4494C45.4726 23.4494 46.5925 22.6528 47.5047 21.0582C48.3109 19.6439 48.7127 18.1126 48.7127 16.4657C48.7127 13.9768 47.7551 12.7317 45.8385 12.7317C45.0859 12.7317 44.3884 12.9738 43.7431 13.4568C43.1873 13.8695 42.6961 14.4501 42.2655 15.2027C41.495 16.5634 41.1112 17.9516 41.1112 19.366V20.0924H41.1125Z" fill="white"/>
<path d="M52.3125 25.0596L56.3409 5.82812H58.7046L54.6762 25.0596H52.3125Z" fill="white"/>
<path d="M64.9107 26.6415C64.5708 27.2496 64.275 27.7339 64.0246 28.0916C63.6848 28.5745 63.3532 28.9777 63.0313 29.2996C62.2608 30.0343 61.3486 30.4003 60.292 30.4003C59.6646 30.4003 59.1377 30.3191 58.707 30.1581L58.8419 27.9293C59.4142 28.0724 59.8627 28.1439 60.1847 28.1439C60.7749 28.1439 61.2771 27.9554 61.6885 27.5798C61.9746 27.3294 62.3145 26.863 62.7093 26.1833L63.4619 24.8405L61.1519 10.8744H63.4881L64.5351 17.8843C64.7676 19.2808 64.9464 20.6772 65.0716 22.0737L71.3028 10.873H73.7738L64.9107 26.6415Z" fill="white"/>
<path d="M187.819 32.365H0L0 0.880859H187.819V32.365ZM0.833789 31.5637H186.985V1.6821H0.833789V31.5637Z" fill="#F8D153"/>
<path d="M188 1.67773H151.301V32.1318H188V1.67773Z" fill="#F8D153"/>
<path d="M161.713 26.7236C160.291 26.7236 159.175 26.3837 158.365 25.7027C157.554 25.0217 157.148 24.1012 157.148 22.9386C157.148 20.996 157.989 19.55 159.672 18.5979C161.354 17.6472 163.396 17.101 165.8 16.9606L168.173 16.7804C168.353 16.7611 168.498 16.7047 168.609 16.6153C168.719 16.5245 168.784 16.4103 168.805 16.27L168.924 15.4596C168.964 15.139 168.985 14.9189 168.985 14.7992C168.985 13.9187 168.7 13.2321 168.129 12.741C167.558 12.2512 166.772 12.0049 165.771 12.0049C163.948 12.0049 162.377 12.8263 161.054 14.4676C160.994 14.5474 160.935 14.5928 160.874 14.6025C160.814 14.6135 160.734 14.5983 160.633 14.5571L159.102 14.0164C158.982 13.9765 158.922 13.8967 158.922 13.7756C158.922 13.6752 158.962 13.5555 159.042 13.4151C159.782 12.3943 160.739 11.6031 161.91 11.0418C163.082 10.4818 164.428 10.2012 165.951 10.2012C167.733 10.2012 169.091 10.5823 170.021 11.3431C170.952 12.1039 171.417 13.1551 171.417 14.4965C171.417 14.6974 171.397 14.9973 171.357 15.3977L169.885 26.0618C169.864 26.2228 169.829 26.3218 169.78 26.3617C169.729 26.4016 169.625 26.4223 169.465 26.4223H167.962C167.702 26.4223 167.572 26.2627 167.572 25.9421L167.722 24.5002C167.722 24.3805 167.691 24.32 167.631 24.32C167.57 24.32 167.46 24.3998 167.301 24.5608C165.679 26.0026 163.816 26.7236 161.713 26.7236ZM168.443 18.7038L168.473 18.5236C168.473 18.364 168.363 18.2938 168.143 18.3131L166.071 18.4933C164.388 18.613 162.906 18.9735 161.625 19.5747C160.343 20.176 159.703 21.1776 159.703 22.5782C159.703 23.2799 159.963 23.8357 160.485 24.2457C161.005 24.6557 161.726 24.8621 162.648 24.8621C163.308 24.8621 163.955 24.7465 164.585 24.5167C165.215 24.287 165.791 23.9815 166.311 23.6004C166.832 23.2207 167.253 22.819 167.573 22.3993C167.894 21.9783 168.074 21.589 168.114 21.2285L168.443 18.7038Z" fill="#131D27"/>
<path d="M176.793 26.0003C176.772 26.2012 176.732 26.3209 176.673 26.3608C176.612 26.4007 176.472 26.4213 176.252 26.4213H174.719C174.378 26.4213 174.228 26.2521 174.268 25.9109L176.401 10.8318C176.42 10.6914 176.45 10.602 176.491 10.5621C176.531 10.5222 176.611 10.5016 176.732 10.5016H178.624C178.865 10.5016 178.964 10.6515 178.924 10.9528L176.793 26.0003ZM179.557 7.13626C179.517 7.33713 179.462 7.47197 179.392 7.54214C179.321 7.6123 179.187 7.64669 178.986 7.64669H177.153C176.853 7.64669 176.743 7.45683 176.823 7.07573L177.183 4.58271C177.223 4.28278 177.373 4.13281 177.633 4.13281H179.586C179.705 4.13281 179.796 4.18235 179.855 4.28278C179.916 4.38322 179.925 4.51392 179.886 4.67351L179.557 7.13626Z" fill="#131D27"/>
<path d="M104.327 22.5337C103.324 23.6619 102.277 24.4585 101.185 24.9235C100.2 25.3349 99.2601 25.4601 98.3645 25.2991C96.5195 24.9593 95.5977 23.9123 95.5977 22.1567C95.5977 21.7453 95.6417 21.2611 95.7325 20.7066C95.7861 20.3668 95.8838 19.8563 96.0283 19.1753L97.7206 11.1445H100.084L98.07 20.9212C98.0164 21.261 97.9889 21.539 97.9889 21.7536C97.9889 22.8639 98.6245 23.4184 99.8958 23.4184C101.417 23.4184 102.707 22.6933 103.763 21.2432C104.192 20.6515 104.532 19.9636 104.784 19.1753C104.874 18.8891 104.963 18.5493 105.052 18.1544L106.53 11.1445H108.894L105.993 25.057H103.791L104.327 22.5337Z" fill="white"/>
<path d="M109.648 25.0576L112.549 11.1451H114.94L112.012 25.0576H109.648ZM113.114 8.5118L113.678 5.82617H116.042L115.478 8.5118H113.114Z" fill="white"/>
<path d="M126.166 15.5725C126.149 13.6752 125.227 12.7258 123.4 12.7258C121.95 12.7258 120.786 13.4784 119.908 14.9822C119.102 16.3608 118.7 18.0531 118.7 20.059C118.7 22.3691 119.604 23.5234 121.413 23.5234C123.203 23.5234 124.492 22.3416 125.28 19.9779L127.644 20.22C126.462 23.6404 124.376 25.3505 121.385 25.3505C119.844 25.3505 118.619 24.8676 117.705 23.9004C116.774 22.8974 116.309 21.5367 116.309 19.8183C116.309 17.2757 116.962 15.1542 118.269 13.4523C119.63 11.6981 121.412 10.8203 123.614 10.8203C125.047 10.8203 126.21 11.2138 127.106 12.0022C128.038 12.8442 128.493 13.9902 128.476 15.4404L126.166 15.5725Z" fill="white"/>
<path d="M129.121 25.0576L133.15 5.82617H135.513L133.015 17.7519L139.945 11.1451H143.087L137.124 16.3293L140.724 25.059H138.118L135.351 17.9143L132.477 20.4128L131.483 25.059H129.121V25.0576Z" fill="white"/>
<path d="M91.4908 7.86759C90.0035 6.29226 88.0443 5.50391 85.6077 5.50391C84.3461 5.50391 83.1738 5.70753 82.0938 6.11478C81.4898 6.34179 81.2105 7.03797 81.4843 7.6227C81.7361 8.16202 82.3745 8.41517 82.9207 8.17578C83.7558 7.80843 84.6611 7.62544 85.6366 7.62544C87.2119 7.62544 88.519 8.19779 89.5577 9.34386C89.5673 9.35486 89.5784 9.36588 89.588 9.37688C89.6815 9.4787 89.837 9.49383 89.9471 9.4099L91.4577 8.26108C91.5829 8.16614 91.6008 7.98316 91.4935 7.86897C91.4921 7.86897 91.4908 7.86759 91.4908 7.86759Z" fill="white"/>
<path d="M93.2996 11.0424C93.162 10.5842 92.99 10.1467 92.785 9.73258C92.492 9.14234 91.7339 8.96349 91.2097 9.36248L90.9098 9.59087C90.5163 9.88943 90.3718 10.4233 90.5782 10.8718C90.7061 11.1511 90.8148 11.4427 90.9029 11.7482C91.09 12.3934 91.7752 12.7539 92.4108 12.5365L92.5539 12.487C93.1496 12.2834 93.4798 11.6464 93.2996 11.0424Z" fill="white"/>
<path d="M91.7168 22.6946C91.3082 22.6781 90.9656 22.9973 90.9505 23.4045L90.8858 25.094C90.2034 24.5891 89.6338 24.0663 89.1812 23.5256C92.2066 21.2692 93.72 18.1364 93.72 14.1245C93.72 13.8466 93.7118 13.5728 93.6939 13.3059C93.6801 13.0899 93.4628 12.9468 93.2578 13.017L91.4196 13.6471C91.2848 13.6925 91.1968 13.8191 91.1968 13.9622C91.1968 13.9635 91.1968 13.9635 91.1968 13.9649C91.1968 17.4017 90.0053 20.0351 87.6237 21.8608L87.061 21.2706C86.8271 21.0381 86.5946 20.8317 86.3621 20.6528C85.7718 20.152 85.1169 19.7572 84.4015 19.471L83.4618 21.0835C83.9998 21.3518 84.4923 21.6476 84.9395 21.9695C85.2614 22.2199 85.5916 22.5075 85.9328 22.8294C85.1981 23.1156 84.33 23.2587 83.327 23.2587C81.947 23.2587 80.739 22.7138 79.7003 21.62C78.5363 20.4203 77.9543 18.8367 77.9543 16.8665C77.9543 14.4905 78.5748 12.4652 79.8145 10.7895C79.9576 10.5955 79.9851 10.3396 79.8833 10.1208L79.3412 8.961C79.1444 8.54137 78.5831 8.4602 78.2763 8.80691C76.3776 10.956 75.4297 13.5797 75.4297 16.6767C75.4297 19.3444 76.1891 21.4673 77.7122 23.0427C79.2339 24.6001 81.3018 25.3788 83.9172 25.3788C85.0633 25.3788 86.2713 25.083 87.5439 24.4928C87.5439 24.5121 87.5604 24.5286 87.5976 24.5465L88.0007 25.0019C88.2167 25.2358 88.4313 25.4504 88.646 25.6471C88.9363 25.9292 89.2458 26.2016 89.576 26.4658L87.8287 26.7244C87.4256 26.7836 87.1463 27.1592 87.2068 27.5637C87.2605 27.931 87.5769 28.1938 87.936 28.1938C87.9718 28.1938 88.0089 28.191 88.0447 28.1855L91.6645 27.649C92.0154 27.5967 92.2809 27.3023 92.2947 26.9473L92.4281 23.4609C92.4419 23.0523 92.1241 22.7097 91.7168 22.6946Z" fill="#F8D153"/>
<path d="M84.1341 17.9961C83.9209 17.9961 83.709 17.9232 83.5508 17.7966L81.4691 16.1278C81.2958 15.9888 81.1926 15.7976 81.1775 15.5898C81.1637 15.3876 81.2352 15.1908 81.3811 15.0353C81.5118 14.8964 81.6948 14.8014 81.8943 14.7698C81.9438 14.7615 81.9947 14.7574 82.0456 14.7574C82.2589 14.7574 82.4652 14.829 82.6262 14.9569L84.0309 16.0837L87.3632 12.4625C87.4953 12.3194 87.6796 12.2218 87.8833 12.1901C87.9328 12.1819 87.9837 12.1777 88.0346 12.1777C88.2451 12.1777 88.4487 12.2465 88.6083 12.3717C88.7831 12.5093 88.889 12.6992 88.9069 12.9069C88.9234 13.1092 88.8532 13.3059 88.7101 13.4628L84.8028 17.71C84.6707 17.853 84.4863 17.9507 84.2827 17.9824C84.2552 17.9865 84.2277 17.9893 84.2002 17.992C84.1781 17.9948 84.1561 17.9961 84.1341 17.9961Z" fill="white"/>
</svg>
